<svg width="535" height="19" viewBox="0 0 535 19" fill="none" xmlns="http://www.w3.org/2000/svg">
<path d="M321 3.00001C354.352 3.00001 387.704 3.00001 421.056 3.00001C448.815 3.00001 476.574 3.00001 504.333 3.00001C511.515 3.00001 523.691 1.18668 531.167 3.05557C540.19 5.31139 512.579 3.88859 503.278 3.94446C461.78 4.19369 420.276 4.00001 378.778 4.00001C271.296 4.00001 163.815 4.00001 56.3333 4.00001C45.4444 4.00001 34.5555 4.00001 23.6667 4.00001C19.4815 4.00001 32.037 4.00001 36.2222 4.00001C126.407 4.00001 216.593 4.00001 306.778 4.00001C344.426 4.00001 382.074 4.00001 419.722 4.00001C426.037 4.00001 444.702 2.25399 438.667 4.11112C428.911 7.1128 414.971 5.77246 405.278 5.8889C374.135 6.26298 342.977 6.00001 311.833 6.00001C282.936 6.00001 254.007 5.61473 225.111 6.00001C220.637 6.05967 232.833 7.00001 234.222 7.00001C239.101 7.00001 244.129 6.65209 249 7.00001C282.255 9.37539 182.34 9.00001 149 9.00001C100.815 9.00001 52.6296 9.00001 4.44443 9.00001C3.18517 9.00001 -0.592606 9.00001 0.666653 9.00001C8.88888 9.00001 17.1111 9.00001 25.3333 9.00001C81.0446 9.00001 136.368 11.7656 192 14.5556C236.656 16.7951 281.303 17 326 17" stroke="#FF7E1C" stroke-width="3" stroke-linecap="round"/>
</svg>
